<?xml version="1.0" standalone="no"?>
<!DOCTYPE svg PUBLIC "-//W3C//DTD SVG 20010904//EN"
 "http://www.w3.org/TR/2001/REC-SVG-20010904/DTD/svg10.dtd">
<svg version="1.0" xmlns="http://www.w3.org/2000/svg"
 width="1024.000000pt" height="1024.000000pt" viewBox="0 0 1024.000000 1024.000000"
 preserveAspectRatio="xMidYMid meet">
<metadata>
Created by potrace 1.11, written by Peter Selinger 2001-2013
</metadata>
<g transform="translate(0.000000,1024.000000) scale(0.100000,-0.100000)"
fill="#000000" stroke="none">
<path d="M3495 9444 c-240 -24 -367 -52 -535 -117 -138 -54 -227 -105 -326
-189 -102 -85 -180 -182 -376 -468 -28 -41 -54 -77 -58 -80 -4 -3 -26 -34 -50
-70 -24 -36 -46 -67 -50 -70 -4 -3 -26 -34 -50 -70 -24 -36 -46 -67 -50 -70
-4 -3 -26 -34 -50 -70 -24 -36 -46 -67 -50 -70 -4 -3 -26 -34 -50 -70 -24 -36
-46 -67 -50 -70 -4 -3 -26 -34 -50 -70 -24 -36 -46 -67 -50 -70 -4 -3 -25 -32
-48 -65 -23 -33 -82 -116 -132 -185 -50 -69 -109 -152 -132 -185 -23 -33 -44
-62 -47 -65 -3 -3 -26 -34 -50 -70 -25 -36 -48 -67 -51 -70 -4 -3 -26 -34 -50
-70 -24 -36 -46 -67 -50 -70 -4 -3 -26 -34 -50 -70 -24 -36 -46 -67 -50 -70
-4 -3 -26 -34 -50 -70 -24 -36 -46 -67 -50 -70 -3 -3 -62 -84 -130 -180 -68
-96 -127 -177 -130 -180 -9 -9 -70 -98 -70 -103 0 -3 -17 -34 -38 -68 -21 -35
-41 -73 -44 -84 -4 -11 -16 -46 -28 -79 -29 -81 -39 -132 -54 -275 -26 -253
30 -570 153 -881 54 -134 197 -424 254 -515 24 -38 76 -122 116 -185 162 -259
432 -601 710 -900 243 -261 476 -485 725 -695 382 -323 853 -660 1281 -917
227 -136 237 -142 430 -243 169 -89 264 -137 350 -176 92 -41 166 -75 242
-110 35 -15 129 -54 210 -84 82 -31 177 -68 213 -82 57 -22 176 -60 390 -124
36 -11 106 -29 155 -40 50 -11 135 -31 190 -44 55 -13 190 -35 300 -50 526
-71 971 -12 1288 171 168 97 253 183 447 454 141 196 363 505 713 993 160 225
353 494 427 597 631 879 647 904 699 1047 52 143 65 230 65 428 -1 144 -5 203
-23 295 -24 123 -85 345 -99 364 -5 6 -24 52 -42 101 -36 98 -183 399 -236
482 -18 28 -64 102 -102 165 -82 135 -283 414 -390 542 -42 51 -95 115 -117
142 -22 26 -56 67 -75 89 -145 168 -616 635 -750 745 -30 25 -57 47 -60 50 -3
3 -34 30 -70 60 -36 30 -67 57 -70 60 -3 3 -30 25 -60 50 -30 25 -60 49 -66
55 -6 5 -80 62 -164 125 -84 63 -158 120 -164 125 -6 6 -27 22 -46 35 -19 13
-37 27 -40 30 -10 14 -520 350 -530 350 -5 0 -10 4 -10 9 0 5 -8 11 -17 14
-20 7 -95 50 -135 78 -14 11 -29 19 -33 19 -3 0 -26 14 -50 30 -24 17 -47 30
-50 30 -4 0 -20 9 -36 21 -16 11 -64 39 -107 61 -42 22 -126 66 -187 98 -173
91 -226 117 -290 146 -33 14 -87 39 -120 54 -150 70 -216 97 -380 160 -60 23
-119 46 -130 50 -74 30 -120 46 -265 90 -41 12 -100 31 -130 40 -85 27 -128
38 -222 60 -49 11 -125 29 -170 39 -216 51 -698 93 -873 75z m429 -303 c34 -5
102 -15 151 -21 115 -14 192 -28 280 -50 39 -9 97 -23 130 -30 62 -13 158 -39
255 -70 30 -9 89 -27 130 -40 71 -21 157 -51 208 -71 12 -5 32 -13 45 -18 12
-5 72 -28 132 -51 106 -41 130 -51 275 -118 36 -16 101 -46 145 -66 86 -40
141 -67 278 -140 48 -25 125 -66 172 -91 47 -24 99 -53 115 -65 15 -11 31 -20
35 -20 3 0 26 -13 50 -30 24 -16 46 -30 50 -30 4 0 26 -13 50 -30 24 -16 48
-30 54 -30 6 0 11 -4 11 -10 0 -5 5 -10 11 -10 6 0 30 -13 54 -30 24 -16 46
-30 50 -30 7 0 93 -58 111 -75 6 -5 90 -63 185 -127 141 -95 358 -253 439
-321 8 -7 31 -23 50 -37 19 -13 37 -27 40 -30 3 -3 30 -25 60 -50 30 -25 57
-47 60 -50 3 -3 34 -30 70 -60 36 -30 67 -57 70 -60 3 -3 34 -30 70 -60 119
-100 440 -412 631 -615 214 -227 521 -626 659 -855 34 -58 72 -118 83 -133 32
-46 182 -356 222 -458 91 -234 134 -417 142 -606 12 -283 -57 -478 -227 -635
-297 -277 -817 -333 -1585 -173 -197 41 -164 33 -335 85 -250 78 -314 100
-545 192 -180 71 -675 303 -720 338 -5 4 -48 27 -95 51 -339 173 -953 582
-1356 903 -429 342 -859 758 -1169 1131 -55 66 -105 126 -112 133 -7 8 -34 44
-60 80 -26 37 -50 69 -53 72 -19 17 -210 295 -210 305 0 4 -13 25 -29 48 -57
85 -108 176 -189 338 -45 91 -82 169 -82 172 0 4 -9 26 -19 50 -26 56 -97 273
-105 317 -3 19 -12 64 -20 100 -21 99 -29 263 -17 362 23 177 87 319 194 430
81 84 115 110 207 161 105 57 244 98 430 126 77 12 451 13 524 2z m-1621
-1022 c32 -17 41 -36 53 -119 13 -89 1 -134 -41 -150 -31 -12 -69 -4 -86 16
-7 8 -18 51 -25 97 -16 94 -8 129 35 152 32 18 37 18 64 4z m81 -415 c14 -15
26 -32 26 -39 0 -11 26 -98 71 -235 7 -19 21 -55 31 -80 11 -25 24 -54 28 -65
11 -29 138 -284 158 -320 56 -97 84 -142 155 -249 75 -113 233 -327 274 -371
10 -11 38 -45 63 -75 25 -30 47 -57 51 -60 3 -3 33 -39 68 -80 78 -94 381
-411 486 -510 221 -208 342 -318 460 -422 117 -102 130 -118 133 -150 2 -27
-2 -41 -19 -57 -45 -42 -65 -32 -250 130 -163 142 -417 376 -519 479 -128 128
-332 343 -380 400 -30 36 -57 67 -60 70 -3 3 -25 30 -50 60 -25 30 -47 57 -50
60 -17 14 -123 145 -175 215 -33 44 -62 82 -66 85 -8 7 -189 278 -189 284 0 2
-21 40 -48 83 -41 68 -160 300 -182 358 -4 11 -17 40 -28 65 -11 25 -34 90
-52 145 -18 55 -36 109 -40 120 -22 55 -30 116 -19 138 29 53 81 62 123 21z
m4983 -4165 c151 -40 180 -52 195 -83 15 -35 -3 -73 -38 -82 -50 -13 -285 39
-322 71 -33 29 -33 72 2 102 15 13 31 23 36 23 5 0 62 -14 127 -31z m538 -113
c147 -23 405 -39 506 -33 301 21 288 21 309 2 25 -23 26 -59 1 -84 -29 -29
-108 -36 -421 -36 -219 1 -313 5 -405 18 -143 22 -174 32 -186 64 -13 34 -12
40 11 63 24 24 61 25 185 6z"/>
<path d="M4690 7720 c-14 -4 -40 -8 -58 -9 -18 -1 -40 -5 -50 -10 -9 -5 -35
-17 -56 -27 -55 -24 -130 -96 -157 -152 -36 -75 -30 -278 11 -377 4 -11 18
-47 31 -80 33 -87 91 -205 128 -258 17 -25 31 -48 31 -52 0 -6 53 -85 76 -115
7 -8 29 -37 50 -65 179 -241 498 -551 794 -771 329 -245 654 -430 990 -564
107 -43 134 -52 250 -88 236 -73 512 -101 689 -71 244 42 356 211 307 460 -30
147 -101 316 -207 489 -154 251 -455 580 -749 820 -30 25 -57 47 -60 50 -10
11 -196 148 -245 180 -27 19 -52 36 -55 40 -3 3 -27 20 -55 38 -27 17 -55 36
-62 42 -7 5 -15 10 -18 10 -4 0 -26 14 -50 30 -24 17 -47 30 -50 30 -4 0 -19
9 -35 20 -26 19 -89 53 -230 126 -89 45 -222 106 -295 133 -33 13 -70 27 -82
32 -57 23 -73 28 -143 49 -41 12 -86 26 -100 30 -46 14 -193 44 -291 60 -76
12 -272 12 -309 0z"/>
</g>
</svg>
